Patient4_TMGait_0pt7_01_right_26_GRF.mot
version=1
nRows=52
nColumns=19
inDegrees=no
endheader
time	F1x	F1y	F1z	M1x	M1y	M1z	F2x	F2y	F2z	M2x	M2y	M2z	EC1x	EC1y	EC1z	EC2x	EC2y	EC2z
29.37	-35.8647	715.7725	87.3865	-240.5765	-101.4585	774.2632	5.8162	18.843	6.424	2.8893	-3.2178	17.9162	-0.0592	0.0182	-0.0073	-0.0462	0.0165	0.9585
29.3817	-26.1209	712.9266	84.2634	-238.6954	-95.7022	770.1898	3.5599	13.5437	4.197	2.2664	-1.9545	13.2196	-0.0592	0.0182	-0.0073	-0.0462	0.0165	0.9585
29.3934	-17.5806	710.278	81.3956	-236.7941	-90.3457	765.6409	1.71	9.0467	2.3708	1.7198	-0.92959	9.2011	-0.0592	0.0182	-0.0073	-0.0462	0.0165	0.9585
29.4051	-10.7037	708.1774	78.8794	-235.0456	-85.6181	761.0096	0.34809	5.6255	1.019	1.2942	-0.18435	6.1183	-0.0592	0.0182	-0.0073	-0.0462	0.0165	0.9585
29.4169	-5.5228	706.8484	76.7434	-233.5736	-81.5888	756.6376	-0.56805	3.29	0.11265	1.0004	0.3094	3.9969	-0.0592	0.0182	-0.0073	-0.0462	0.0165	0.9585
29.4286	-1.8061	706.3348	74.9056	-232.4338	-78.1525	752.6489	-1.1044	1.8799	-0.43455	0.82381	0.60712	2.6871	-0.0592	0.0182	-0.0073	-0.0462	0.0165	0.9585
29.4403	0.80368	706.5261	73.3023	-231.6136	-75.1844	749.0301	-1.3919	1.1658	-0.72605	0.73678	0.78278	1.9969	-0.0592	0.0182	-0.0073	-0.0462	0.0165	0.9585
29.452	2.697	707.2128	71.8318	-231.0594	-72.5062	745.6273	-1.5122	0.88026	-0.8601	0.69902	0.89622	1.6712	-0.0592	0.0182	-0.0073	-0.0462	0.0165	0.9585
29.4637	4.233	708.2105	70.4485	-230.7088	-69.9974	742.2934	-1.5768	0.79245	-0.92031	0.66936	1.0101	1.5053	-0.0592	0.0182	-0.0073	-0.0462	0.0165	0.9585
29.4754	5.7343	709.4168	69.1232	-230.5202	-67.5547	738.9524	-1.6269	0.67877	-0.96678	0.59912	1.1574	1.2601	-0.0592	0.0182	-0.0073	-0.0462	0.0165	0.9585
29.4871	7.4627	710.8879	67.8784	-230.4947	-65.1388	735.6847	-1.7219	0.38654	-1.0465	0.44782	1.3707	0.79167	-0.0592	0.0182	-0.0073	-0.0462	0.0165	0.9585
29.4989	9.5983	712.8496	66.7884	-230.687	-62.7753	732.7293	-1.8457	-0.23103	-1.1756	0.1736	1.6443	-0.072213	-0.0592	0.0182	-0.0073	-0.0462	0.0165	0.9585
29.5106	12.3013	715.6766	65.9394	-231.2015	-60.5056	730.4729	-2.0021	-1.2495	-1.3457	-0.24868	1.9587	-1.4103	-0.0592	0.0182	-0.0073	-0.0462	0.0165	0.9585
29.5223	15.6344	719.8203	65.4776	-232.1687	-58.444	729.3731	-2.1066	-2.7206	-1.5295	-0.83427	2.2536	-3.2903	-0.0592	0.0182	-0.0073	-0.0462	0.0165	0.9585
29.534	19.6121	725.6914	65.4898	-233.7114	-56.6623	729.8433	-2.0879	-4.5766	-1.6668	-1.5586	2.428	-5.6151	-0.0592	0.0182	-0.0073	-0.0462	0.0165	0.9585
29.5457	24.1347	733.5516	66.0919	-235.9026	-55.2865	732.1819	-1.7761	-6.6375	-1.6743	-2.3488	2.3205	-8.1806	-0.0592	0.0182	-0.0073	-0.0462	0.0165	0.9585
29.5574	29.0199	743.3593	67.2728	-238.7216	-54.3441	736.38	-1.0226	-8.4784	-1.427	-3.0423	1.7227	-10.4648	-0.0592	0.0182	-0.0073	-0.0462	0.0165	0.9585
29.5691	33.9939	754.6728	69.0272	-242.0175	-53.8969	742.0603	0.4037	-9.4292	-0.76354	-3.3762	0.35602	-11.6751	-0.0592	0.0182	-0.0073	-0.0462	0.0165	0.9585
29.5809	38.772	766.681	71.2179	-245.529	-53.8968	748.4739	2.6703	-8.4182	0.5054	-2.9427	-2.075	-10.4841	-0.0592	0.0182	-0.0073	-0.0462	0.0165	0.9585
29.5926	43.0502	778.3199	73.7155	-248.9183	-54.3153	754.6468	5.9423	-4.0277	2.5773	-1.1952	-5.8603	-5.1473	-0.0592	0.0182	-0.0073	-0.0462	0.0165	0.9585
29.6043	46.6454	788.4595	76.2868	-251.8358	-54.9994	759.5329	10.188	5.5557	5.5962	2.5512	-11.1529	6.6013	-0.0592	0.0182	-0.0073	-0.0462	0.0165	0.9585
29.616	49.4945	795.9406	78.6897	-253.9247	-55.7574	762.0635	15.1733	22.2791	9.5963	9.0286	-17.8791	27.1657	-0.0592	0.0182	-0.0073	-0.0462	0.0165	0.9585
29.6277	51.6981	799.5515	80.63	-254.8177	-56.304	761.1106	20.1892	47.9364	14.3734	18.8914	-25.4971	58.799	-0.0592	0.0182	-0.0073	-0.0462	0.0165	0.9585
29.6394	53.4448	797.9463	81.7876	-254.1046	-56.3074	755.4505	23.9879	83.4613	19.3437	32.4571	-32.7891	102.6747	-0.0592	0.0182	-0.0073	-0.0462	0.0165	0.9585
29.6511	54.9215	789.6025	81.8512	-251.3156	-55.4524	743.7152	24.571	128.167	23.3679	49.4049	-37.6103	158.0073	-0.0592	0.0182	-0.0073	-0.0462	0.0165	0.9585
29.6629	56.2138	772.9091	80.4896	-245.9506	-53.4369	724.4708	20.0037	179.258	24.9074	68.5898	-37.3723	221.3935	-0.0592	0.0182	-0.0073	-0.0462	0.0165	0.9585
29.6746	57.2681	746.3873	77.4489	-237.5457	-50.0769	696.4455	10.0245	232.0728	22.4132	88.1748	-30.1695	287.0682	-0.0592	0.0182	-0.0073	-0.0462	0.0165	0.9585
29.6863	57.8638	709.0138	72.5542	-225.774	-45.3123	658.7975	-2.7736	281.539	15.618	106.2464	-16.7357	348.5077	-0.0592	0.0182	-0.0073	-0.0462	0.0165	0.9585
29.698	57.6705	660.5289	65.8559	-210.5398	-39.3136	611.4009	-15.5757	323.7977	5.9967	121.4363	0.012623	400.5584	-0.0592	0.0182	-0.0073	-0.0462	0.0165	0.9585
29.7097	56.3508	601.6726	57.6143	-192.0539	-32.4269	555.0342	-26.467	357.9457	-4.7994	133.5135	17.2477	441.7153	-0.0592	0.0182	-0.0073	-0.0462	0.0165	0.9585
29.7214	53.6149	534.2722	48.294	-170.8589	-25.1409	491.4424	-34.7041	386.6042	-15.1843	143.5417	32.8069	475.0462	-0.0592	0.0182	-0.0073	-0.0462	0.0165	0.9585
29.7331	49.3273	461.0409	38.5218	-147.7761	-18.02	423.1285	-40.3008	413.6935	-24.1788	153.0579	45.5222	505.3701	-0.0592	0.0182	-0.0073	-0.0462	0.0165	0.9585
29.7449	43.5158	385.3348	28.996	-123.8308	-11.6265	353.1152	-43.6056	442.6855	-31.1738	163.3971	54.8687	536.9695	-0.0592	0.0182	-0.0073	-0.0462	0.0165	0.9585
29.7566	36.3884	310.7756	20.4013	-100.1439	-6.4613	284.6126	-44.98	475.5678	-36.3261	175.3068	61.1931	572.299	-0.0592	0.0182	-0.0073	-0.0462	0.0165	0.9585
29.7683	28.4054	240.9062	13.2339	-77.837	-2.7928	220.7224	-44.7938	512.8963	-40.0457	188.9595	65.1834	612.042	-0.0592	0.0182	-0.0073	-0.0462	0.0165	0.9585
29.78	20.235	178.6987	7.7422	-57.8794	-0.61742	164.0155	-43.3859	553.8891	-43.271	203.9913	68.0663	655.3264	-0.0592	0.0182	-0.0073	-0.0462	0.0165	0.9585
29.7917	12.6273	126.1275	3.9079	-40.9369	0.31937	116.1529	-41.1441	596.7909	-46.7188	219.6796	70.8515	700.1963	-0.0592	0.0182	-0.0073	-0.0462	0.0165	0.9585
29.8034	6.2073	83.8516	1.493	-27.2632	0.41049	77.6595	-38.4614	639.3336	-51.0655	235.1153	74.4459	744.1211	-0.0592	0.0182	-0.0073	-0.0462	0.0165	0.9585
29.8151	1.3197	51.4779	0.13201	-16.7701	0.074473	48.1401	-35.7574	679.3251	-56.4539	249.4515	79.1723	784.6901	-0.0592	0.0182	-0.0073	-0.0462	0.0165	0.9585
29.8269	-1.9339	27.9964	-0.53755	-9.1548	-0.34888	26.6714	-33.3528	715.0482	-62.6871	262.0512	84.9167	820.0743	-0.0592	0.0182	-0.0073	-0.0462	0.0165	0.9585
29.8386	-3.6275	12.0463	-0.76048	-3.9855	-0.67562	12.0177	-31.3988	745.4242	-69.0836	272.548	90.9762	849.1801	-0.0592	0.0182	-0.0073	-0.0462	0.0165	0.9585
29.8503	-4.0674	2.1844	-0.73906	-0.79386	-0.82897	2.8712	-29.8773	769.7317	-74.8341	280.7319	96.4402	871.3121	-0.0592	0.0182	-0.0073	-0.0462	0.0165	0.9585
29.862	-3.7642	-3.037	-0.57654	0.89385	-0.87814	-2.057	-28.6562	787.4801	-79.2553	286.4736	100.5055	886.0589	-0.0592	0.0182	-0.0073	-0.0462	0.0165	0.9585
29.8737	-3.0926	-5.0406	-0.38133	1.5378	-0.84332	-4.0322	-27.5673	798.3615	-82.0483	289.6913	102.7872	893.1917	-0.0592	0.0182	-0.0073	-0.0462	0.0165	0.9585
29.8854	-2.3226	-5.0275	-0.17401	1.5295	-0.78457	-4.1272	-26.5452	802.4684	-83.3336	290.4288	103.39	892.9396	-0.0592	0.0182	-0.0073	-0.0462	0.0165	0.9585
29.8971	-1.598	-3.9432	-0.0082707	1.1754	-0.69751	-3.2066	-25.5142	800.5625	-83.4321	288.9556	102.6572	886.2505	-0.0592	0.0182	-0.0073	-0.0462	0.0165	0.9585
29.9089	-1.0023	-2.4337	0.13177	0.68671	-0.62247	-1.8503	-24.5047	793.9545	-82.7331	285.7442	101.0329	874.6531	-0.0592	0.0182	-0.0073	-0.0462	0.0165	0.9585
29.9206	-0.55209	-0.90594	0.22274	0.19256	-0.54287	-0.43978	-23.547	784.3551	-81.4835	281.4242	98.823	860.0563	-0.0592	0.0182	-0.0073	-0.0462	0.0165	0.9585
29.9323	-0.25236	0.42363	0.27971	-0.23623	-0.47141	0.83025	-22.6969	773.5966	-79.8621	276.6724	96.2601	844.4751	-0.0592	0.0182	-0.0073	-0.0462	0.0165	0.9585
29.944	-0.060218	1.4891	0.30142	-0.57765	-0.39836	1.8775	-21.9774	763.2463	-77.9758	272.0787	93.4851	829.5811	-0.0592	0.0182	-0.0073	-0.0462	0.0165	0.9585
29.9557	0.034992	2.2768	0.29404	-0.82882	-0.3307	2.684	-21.4012	754.4398	-75.9803	268.0665	90.6717	816.5539	-0.0592	0.0182	-0.0073	-0.0462	0.0165	0.9585
29.9674	0.075799	2.8225	0.2768	-1.0031	-0.27738	3.2681	-20.935	747.7321	-74.0436	264.8488	87.9841	805.91	-0.0592	0.0182	-0.0073	-0.0462	0.0165	0.9585
